<?xml version="1.0" encoding="UTF-8" standalone="no"?>
<!-- Created with Inkscape (http://www.inkscape.org/) -->

<svg
   xmlns:dc="http://purl.org/dc/elements/1.1/"
   xmlns:cc="http://creativecommons.org/ns#"
   xmlns:rdf="http://www.w3.org/1999/02/22-rdf-syntax-ns#"
   xmlns:svg="http://www.w3.org/2000/svg"
   xmlns="http://www.w3.org/2000/svg"
   xmlns:sodipodi="http://sodipodi.sourceforge.net/DTD/sodipodi-0.dtd"
   xmlns:inkscape="http://www.inkscape.org/namespaces/inkscape"
   width="210mm"
   height="297mm"
   viewBox="0 0 210 297"
   version="1.1"
   id="svg8"
   inkscape:version="0.92.4 (5da689c313, 2019-01-14)"
   sodipodi:docname="progen2svg.svg">
  <defs
     id="defs2" />
  <sodipodi:namedview
     id="base"
     pagecolor="#ffffff"
     bordercolor="#666666"
     borderopacity="1.0"
     inkscape:pageopacity="0.0"
     inkscape:pageshadow="2"
     inkscape:zoom="0.35"
     inkscape:cx="329.24689"
     inkscape:cy="-46.015057"
     inkscape:document-units="mm"
     inkscape:current-layer="layer1"
     showgrid="false"
     inkscape:window-width="1920"
     inkscape:window-height="1027"
     inkscape:window-x="2040"
     inkscape:window-y="174"
     inkscape:window-maximized="1">
    <inkscape:grid
       type="xygrid"
       id="grid833" />
  </sodipodi:namedview>
  <metadata
     id="metadata5">
    <rdf:RDF>
      <cc:Work
         rdf:about="">
        <dc:format>image/svg+xml</dc:format>
        <dc:type
           rdf:resource="http://purl.org/dc/dcmitype/StillImage" />
        <dc:title></dc:title>
      </cc:Work>
    </rdf:RDF>
  </metadata>
  <g
     inkscape:label="Ebene 1"
     inkscape:groupmode="layer"
     id="layer1">
    <rect
       style="fill:#343e68;fill-opacity:1;stroke:none;stroke-width:0.80000001;stroke-miterlimit:4;stroke-dasharray:none;stroke-opacity:1"
       id="rect828-8"
       width="127"
       height="124.35416"
       x="15.875002"
       y="9.9271011"
       ry="21.166649" />
    <rect
       style="fill:#7082e1;fill-opacity:1;stroke:none;stroke-width:0.80000001;stroke-miterlimit:4;stroke-dasharray:none;stroke-opacity:1"
       id="rect828"
       width="127"
       height="124.35416"
       x="15.875002"
       y="3.3125"
       ry="21.166649" />
    <path
       style="fill:#5567a0;fill-opacity:1;stroke:none;stroke-width:0.26458332px;stroke-linecap:butt;stroke-linejoin:miter;stroke-opacity:1"
       d="m 56.885423,99.88541 h 10.58334 V 37.70833 H 85.9896 c 11.90625,2.64583 11.90625,22.48958 -1.32293,23.8125 -4.04281,-0.0173 -2.64587,3e-5 -6.58117,3e-5 l -0.0334,-5.29167 h -6.614587 v 14.55208 l 18.520827,-2e-5 c 15.59518,0 18.82339,-14.23978 14.79549,-26.31686 C 101.9481,36.051857 96.30957,28.447902 85.98959,28.447914 H 58.208343 V 99.88542 c 8.62074,9.02183 16.31049,18.95626 25.135407,27.78125 2.54553,0 28.25674,0.56261 38.2396,0.30748 C 133.61459,127.66667 142.875,118.40625 142.875,106.5 V 74.75 L 88.63542,31.093777 58.208343,28.447914 V 99.88542"
       id="path837-0"
       inkscape:connector-curvature="0"
       sodipodi:nodetypes="ccccccccccsccccsccccc" />
    <path
       style="fill:#ffffff;fill-opacity:1;stroke:none;stroke-width:0.26458332px;stroke-linecap:butt;stroke-linejoin:miter;stroke-opacity:1"
       d="m 56.885413,99.88541 h 10.58334 V 37.70833 H 85.98959 c 11.90625,2.64583 11.90625,22.48958 -1.32293,23.8125 -4.04281,-0.0173 -2.64587,3e-5 -6.58117,3e-5 l -0.0334,-5.29167 h -6.614587 v 14.55208 l 13.229157,-2e-5 c 26.45833,0 26.45831,-42.333354 1.32292,-42.333324 H 58.208333 V 99.88542"
       id="path837-0-1"
       inkscape:connector-curvature="0"
       sodipodi:nodetypes="ccccccccccccc" />
    <circle
       style="fill:#7082e1;fill-opacity:1;stroke:none;stroke-width:0.80000001;stroke-miterlimit:4;stroke-dasharray:none;stroke-opacity:1"
       id="path901-4"
       cx="82.612022"
       cy="209.6472"
       r="60.854168" />
    <path
       style="fill:#5567a0;fill-opacity:1;stroke:none;stroke-width:0.80000001;stroke-miterlimit:4;stroke-dasharray:none;stroke-opacity:1"
       d="m 61.445357,173.92844 v 71.4375 c 7.75478,8.11558 14.75872,16.96721 22.51077,25.08787 A 60.854163,60.854163 0 0 0 142.875,217.625 l -35.07433,-28.23032 c -2.86647,-8.19065 -8.47992,-15.46625 -18.57406,-15.46624 z"
       id="path901"
       inkscape:connector-curvature="0" />
    <path
       style="fill:#ffffff;fill-opacity:1;stroke:none;stroke-width:0.26458332px;stroke-linecap:butt;stroke-linejoin:miter;stroke-opacity:1"
       d="m 60.122447,245.36594 h 10.58334 V 183.18886 H 89.22663 c 11.90625,2.64583 11.90625,22.48958 -1.32293,23.8125 -4.042813,-0.0173 -2.645873,3e-5 -6.581173,3e-5 l -0.0334,-5.29167 h -6.61459 v 14.55208 l 13.229163,-2e-5 c 26.45832,0 26.45831,-42.33336 1.32292,-42.33333 H 61.445367 v 71.4375"
       id="path837-0-1-1-3"
       inkscape:connector-curvature="0"
       sodipodi:nodetypes="ccccccccccccc" />
    <circle
       style="fill:#7082e1;fill-opacity:1;stroke:none;stroke-width:0.80000001;stroke-miterlimit:4;stroke-dasharray:none;stroke-opacity:1"
       id="path901-4-2"
       cx="242.62288"
       cy="76.602081"
       r="60.854168" />
    <path
       style="fill:#5567a0;fill-opacity:1;stroke:none;stroke-width:0.80000001;stroke-miterlimit:4;stroke-dasharray:none;stroke-opacity:1"
       d="M 221.4562,40.883303 V 112.3208 c 7.75478,8.11558 14.75872,16.96721 22.51077,25.08787 a 60.854164,60.854164 0 0 0 58.91887,-52.828807 l -35.07433,-28.23032 c -2.86647,-8.19065 -8.47992,-15.46625 -18.57406,-15.46624 z"
       id="path901-0"
       inkscape:connector-curvature="0" />
    <path
       style="fill:#ffffff;fill-opacity:1;stroke:none;stroke-width:0.26458332px;stroke-linecap:butt;stroke-linejoin:miter;stroke-opacity:1"
       d="m 220.13329,112.3208 h 10.58334 V 50.143723 h 18.52084 c 11.90625,2.64583 11.90625,22.48958 -1.32293,23.8125 -4.04281,-0.0173 -2.64587,3e-5 -6.58117,3e-5 l -0.0334,-5.29167 h -6.61459 v 14.55208 l 13.22916,-2e-5 c 26.45832,0 26.45831,-42.33336 1.32292,-42.33333 h -27.78125 v 71.437497"
       id="path837-0-1-1-3-6"
       inkscape:connector-curvature="0"
       sodipodi:nodetypes="ccccccccccccc" />
    <path
       style="fill:none;fill-opacity:1;stroke:#595959;stroke-width:0.69999999;stroke-linecap:round;stroke-linejoin:round;stroke-miterlimit:4;stroke-dasharray:none;stroke-opacity:1"
       d="M 239.97705,110.9979 V 91.154147 l 23.8125,-5.29166 v 21.166663"
       id="path4528-8"
       inkscape:connector-curvature="0"
       sodipodi:nodetypes="cccc" />
    <path
       style="fill:none;fill-opacity:1;stroke:#595959;stroke-width:0.69999999;stroke-linecap:round;stroke-linejoin:round;stroke-miterlimit:4;stroke-dasharray:none;stroke-opacity:1"
       d="m 239.97705,93.799987 11.90625,-2.64584"
       id="path4534-3"
       inkscape:connector-curvature="0"
       sodipodi:nodetypes="cc" />
    <path
       style="fill:none;fill-opacity:1;stroke:#eeeeee;stroke-width:0.69999999;stroke-linecap:round;stroke-linejoin:round;stroke-miterlimit:4;stroke-dasharray:none;stroke-opacity:1"
       d="M 239.44789,110.46874 V 90.624987 l 23.8125,-5.29166 v 21.166663"
       id="path4528"
       inkscape:connector-curvature="0"
       sodipodi:nodetypes="cccc" />
    <rect
       style="fill:none;fill-opacity:1;stroke:#595959;stroke-width:0.69999999;stroke-linecap:round;stroke-linejoin:round;stroke-miterlimit:4;stroke-dasharray:none;stroke-opacity:1"
       id="rect4530-9"
       width="2.6458333"
       height="1.3229166"
       x="238.65413"
       y="110.99789"
       ry="0.56696504" />
    <rect
       style="fill:none;fill-opacity:1;stroke:#eeeeee;stroke-width:0.69999999;stroke-linecap:round;stroke-linejoin:round;stroke-miterlimit:4;stroke-dasharray:none;stroke-opacity:1"
       id="rect4530"
       width="2.6458333"
       height="1.3229166"
       x="238.12498"
       y="110.46875"
       ry="0.56696504" />
    <rect
       style="fill:none;fill-opacity:1;stroke:#595959;stroke-width:0.69999999;stroke-linecap:round;stroke-linejoin:round;stroke-miterlimit:4;stroke-dasharray:none;stroke-opacity:1"
       id="rect4532-7"
       width="2.6458333"
       height="1.3229166"
       x="262.46664"
       y="107.02916"
       ry="0.56696504" />
    <rect
       style="fill:none;fill-opacity:1;stroke:#eeeeee;stroke-width:0.69999999;stroke-linecap:round;stroke-linejoin:round;stroke-miterlimit:4;stroke-dasharray:none;stroke-opacity:1"
       id="rect4532"
       width="2.6458333"
       height="1.3229166"
       x="261.9375"
       y="106.5"
       ry="0.56696504" />
    <path
       style="fill:none;fill-opacity:1;stroke:#eeeeee;stroke-width:0.69999999;stroke-linecap:round;stroke-linejoin:round;stroke-miterlimit:4;stroke-dasharray:none;stroke-opacity:1"
       d="m 239.44789,93.270827 11.90625,-2.64584"
       id="path4534"
       inkscape:connector-curvature="0"
       sodipodi:nodetypes="cc" />
    <rect
       style="fill:#7082e1;fill-opacity:1;stroke:none;stroke-width:1.11782098;stroke-miterlimit:4;stroke-dasharray:none;stroke-opacity:1"
       id="rect828-1"
       width="247.95238"
       height="124.35416"
       x="169.33333"
       y="156.77083"
       ry="21.166649" />
    <text
       xml:space="preserve"
       style="font-style:normal;font-variant:normal;font-weight:normal;font-stretch:normal;font-size:10.58333302px;line-height:1.25;font-family:Bahnschrift;-inkscape-font-specification:Bahnschrift;letter-spacing:0px;word-spacing:0px;fill:#afafaf;fill-opacity:1;stroke:none;stroke-width:0.26458332;"
       x="293.18115"
       y="190.15016"
       id="text1182-0"><tspan
         sodipodi:role="line"
         id="tspan1180-7"
         x="293.18115"
         y="190.15016"
         style="font-style:normal;font-variant:normal;font-weight:normal;font-stretch:normal;font-family:Bahnschrift;-inkscape-font-specification:Bahnschrift;fill:#afafaf;fill-opacity:1;stroke-width:0.26458332;">by ShowMeYourSkil</tspan></text>
    <path
       style="fill:#5567a0;fill-opacity:1;stroke:none;stroke-width:0.26458332px;stroke-linecap:butt;stroke-linejoin:miter;stroke-opacity:1"
       d="m 210.34375,253.34374 h 10.58334 v -62.17708 h 18.52084 c 11.90625,2.64583 11.90625,22.48958 -1.32293,23.8125 -4.04281,-0.0173 -2.64587,3e-5 -6.58117,3e-5 l -0.0334,-5.29167 h -6.61459 v 14.55208 l 18.52083,-2e-5 c 15.59518,0 18.82339,-14.23978 14.79549,-26.31686 -2.80573,-8.41253 -8.44426,-16.01648 -18.76424,-16.01647 h -27.78125 v 71.43751 c 8.62074,9.02182 16.31049,18.95625 25.13541,27.78124 56.88542,0 56.88542,0 152.13542,0 l -146.84375,-96.57289 -30.42708,-2.64586 v 71.43751"
       id="path837-0-5"
       inkscape:connector-curvature="0"
       sodipodi:nodetypes="ccccccccccscccccccc" />
    <text
       xml:space="preserve"
       style="font-style:normal;font-variant:normal;font-weight:normal;font-stretch:normal;font-size:50.98483658px;line-height:1.25;font-family:Bahnschrift;-inkscape-font-specification:Bahnschrift;letter-spacing:0px;word-spacing:0px;fill:#afafaf;fill-opacity:1;stroke:none;stroke-width:0.26554599"
       x="255.33478"
       y="253.47127"
       id="text1014-1"
       transform="scale(0.99637469,1.0036385)"><tspan
         sodipodi:role="line"
         id="tspan1012-0"
         x="255.33478"
         y="253.47127"
         style="font-style:normal;font-variant:normal;font-weight:normal;font-stretch:normal;font-size:50.98483658px;font-family:Bahnschrift;-inkscape-font-specification:Bahnschrift;fill:#afafaf;fill-opacity:1;stroke-width:0.26554599">rogen</tspan></text>
    <text
       xml:space="preserve"
       style="font-style:normal;font-variant:normal;font-weight:normal;font-stretch:normal;font-size:50.79999924px;line-height:1.25;font-family:Bahnschrift;-inkscape-font-specification:Bahnschrift;letter-spacing:0px;word-spacing:0px;fill:#ffffff;fill-opacity:1;stroke:none;stroke-width:0.26458332"
       x="252.71602"
       y="253.05063"
       id="text1014"><tspan
         sodipodi:role="line"
         id="tspan1012"
         x="252.71602"
         y="253.05063"
         style="font-style:normal;font-variant:normal;font-weight:normal;font-stretch:normal;font-size:50.79999924px;font-family:Bahnschrift;-inkscape-font-specification:Bahnschrift;fill:#ffffff;fill-opacity:1;stroke-width:0.26458332">rogen</tspan></text>
    <path
       style="fill:#ffffff;fill-opacity:1;stroke:none;stroke-width:0.26458332px;stroke-linecap:butt;stroke-linejoin:miter;stroke-opacity:1"
       d="m 210.34374,253.34374 h 10.58334 v -62.17708 h 18.52084 c 11.90625,2.64583 11.90625,22.48958 -1.32293,23.8125 -4.04281,-0.0173 -2.64587,3e-5 -6.58117,3e-5 l -0.0334,-5.29167 h -6.61459 v 14.55208 l 13.22916,-2e-5 c 26.45833,0 26.45831,-42.33335 1.32292,-42.33332 h -27.78125 v 71.4375"
       id="path837-0-1-1"
       inkscape:connector-curvature="0"
       sodipodi:nodetypes="ccccccccccccc" />
    <text
       xml:space="preserve"
       style="font-style:normal;font-variant:normal;font-weight:normal;font-stretch:normal;font-size:10.58333302px;line-height:1.25;font-family:Bahnschrift;-inkscape-font-specification:Bahnschrift;letter-spacing:0px;word-spacing:0px;fill:#ffffff;fill-opacity:1;stroke:none;stroke-width:0.26458332"
       x="292.88565"
       y="189.64249"
       id="text1182"><tspan
         sodipodi:role="line"
         id="tspan1180"
         x="292.88565"
         y="189.64249"
         style="font-style:normal;font-variant:normal;font-weight:normal;font-stretch:normal;font-family:Bahnschrift;-inkscape-font-specification:Bahnschrift;fill:#ffffff;fill-opacity:1;stroke-width:0.26458332">by ShowMeYourSkil</tspan></text>
  </g>
</svg>
